<svg width="99" height="103" viewBox="0 0 99 103" fill="none" xmlns="http://www.w3.org/2000/svg">
<rect x="17" y="52" width="3.204" height="2.36" transform="rotate(56 17 52)" fill="#F54721" fill-opacity="0.35"/>
<rect x="8" y="16" width="3.204" height="2.36" transform="rotate(-3 8 16)" fill="#F54721"/>
<rect x="71" y="97" width="3.204" height="3.36" transform="rotate(118 71 97)" fill="#9DED1A" fill-opacity="0.35"/>
<rect x="4" y="78" width="4.204" height="2.36" transform="rotate(108 4 78)" fill="#FC9E1C" fill-opacity="0.9"/>
<rect x="34" y="7.00002" width="4.204" height="3.36" transform="rotate(-173 34 7.00002)" fill="#FF21FB" fill-opacity="0.45"/>
<rect x="46" y="20" width="3.204" height="1.36" transform="rotate(37 46 20)" fill="#C9FCBE" fill-opacity="0.45"/>
<rect x="83" y="39" width="3.204" height="2.36" transform="rotate(43 83 39)" fill="#03A3F5" fill-opacity="0.85"/>
<rect x="4" y="44" width="3.204" height="2.36" transform="rotate(14 4 44)" fill="#03A3F5" fill-opacity="0.35"/>
<circle cx="15.93" cy="55.93" r="0.93" fill="#4BC8EF" fill-opacity="0.45"/>
<circle cx="86.43" cy="13.43" r="1.43" fill="#FFED36" fill-opacity="0.35"/>
<circle cx="93.5" cy="102.5" r="0.5" fill="#FC9E1C" fill-opacity="0.65"/>
<circle cx="76.5" cy="19.5" r="0.5" fill="#FFED36" fill-opacity="0.35"/>
<circle cx="5.5" cy="49.5" r="0.5" fill="#4BC8EF"/>
<circle cx="91.5" cy="62.5" r="0.5" fill="#BA3E03" fill-opacity="0.45"/>
<circle cx="26.43" cy="12.43" r="1.43" fill="#FC9E1C" fill-opacity="0.45"/>
<circle cx="2.43" cy="89.43" r="1.43" fill="#FC9E1C"/>
<circle cx="82.43" cy="67.43" r="1.43" fill="#DCBCFA" fill-opacity="0.9"/>
<circle cx="29.93" cy="34.93" r="0.93" fill="#9AF5FC" fill-opacity="0.65"/>
<circle cx="74.5" cy="14.5" r="0.5" fill="#9AF5FC" fill-opacity="0.9"/>
<circle cx="27.5" cy="22.5" r="0.5" fill="#9AF5FC" fill-opacity="0.65"/>
<circle cx="41.93" cy="59.93" r="0.93" fill="#FFED36" fill-opacity="0.35"/>
<circle cx="40.93" cy="8.93002" r="0.93" fill="#03A3F5" fill-opacity="0.75"/>
<path d="M75.1869 12.72L74.607 11.8919L75.2154 11.0845L76.1713 11.4136L76.1537 12.4244L75.1869 12.72Z" fill="#480CA7" fill-opacity="0.65"/>
<path d="M47.958 29.5944L47.3216 32.1467L44.7693 31.5103L45.4057 28.958L47.958 29.5944Z" fill="#BA3E03" fill-opacity="0.35"/>
<path d="M87.2921 81.338L87.2462 83.968L84.6161 83.9221L84.662 81.2921L87.2921 81.338Z" fill="#BA3E03" fill-opacity="0.45"/>
<path d="M93.1003 11.7994L93.4011 13.6991L91.5015 13.9999L91.2006 12.1003L93.1003 11.7994Z" fill="#F62584" fill-opacity="0.85"/>
<path d="M65.8295 10.5545L66.984 7.5469L69.0114 10.0506L65.8295 10.5545Z" fill="#9DED1A" fill-opacity="0.75"/>
<path d="M46.377 24.2271L47.09 23.7462L47.8629 24.1232L47.9229 24.9811L47.21 25.462L46.437 25.085L46.377 24.2271Z" fill="#480CA7"/>
<path d="M96.722 32.5349L95.9092 30.7917L97.6523 29.9789L98.4651 31.722L96.722 32.5349Z" fill="#480CA7" fill-opacity="0.45"/>
<path d="M13.114 23.7801L12.9087 26.1267L10.9792 24.7756L13.114 23.7801Z" fill="#4BC8EF" fill-opacity="0.9"/>
<path d="M81.3132 6.51758L80.4596 6.62239L79.942 5.93557L80.2781 5.14393L81.1316 5.03912L81.6492 5.72595L81.3132 6.51758Z" fill="#C9FCBE" fill-opacity="0.35"/>
<path d="M42.6501 3.83428L41.7297 1.66595L44.0678 1.95302L42.6501 3.83428Z" fill="#9AF5FC" fill-opacity="0.45"/>
<path d="M47.3334 86.7365L45.9839 86.6658L45.4996 87.9274L45.1499 86.6221L43.8004 86.5513L44.9337 85.8153L44.5839 84.51L45.6342 85.3604L46.7675 84.6244L46.2832 85.886L47.3334 86.7365Z" fill="#F62584" fill-opacity="0.75"/>
<path d="M80.3393 76.2362L80.4769 77.2147L81.4499 77.3863L80.5618 77.8194L80.6994 78.7979L80.013 78.0871L79.1249 78.5203L79.5888 77.6478L78.9024 76.937L79.8755 77.1086L80.3393 76.2362Z" fill="#FF21FB" fill-opacity="0.75"/>
<path d="M58.7966 64.5186L59.6333 65.7L61.0746 65.8338L59.8933 66.6705L59.7594 68.1119L58.9228 66.9305L57.4814 66.7967L58.6628 65.96L58.7966 64.5186Z" fill="#480CA7" fill-opacity="0.6"/>
<path d="M5.69407 3.67488L6.54103 3.16597L6.31876 2.2032L7.06449 2.85145L7.91145 2.34254L7.52537 3.25209L8.2711 3.90034L7.28676 3.81422L6.90068 4.72377L6.6784 3.761L5.69407 3.67488Z" fill="#755FFE" fill-opacity="0.85"/>
<path d="M77.3303 30.2828L77.4832 31.3301L78.3778 31.8958L77.3304 32.0487L76.7648 32.9433L76.6119 31.896L75.7172 31.3303L76.7646 31.1774L77.3303 30.2828Z" fill="#C9FCBE" fill-opacity="0.9"/>
<path d="M29.9617 18.9617L29.5018 19.7889L30.3137 20.2753L29.3673 20.2907L29.352 21.237L28.8656 20.4251L28.0383 20.885L28.4982 20.0578L27.6863 19.5714L28.6327 19.556L28.648 18.6097L29.1344 19.4216L29.9617 18.9617Z" fill="#DCBCFA" fill-opacity="0.9"/>
<path d="M44.329 50.6804L45.2749 50.6486L45.2737 49.7021L45.7743 50.5054L46.5934 50.0311L46.148 50.8663L46.9682 51.3385L46.0223 51.3703L46.0235 52.3168L45.5229 51.5135L44.7039 51.9877L45.1493 51.1526L44.329 50.6804Z" fill="#C9FCBE" fill-opacity="0.75"/>
<path d="M91.5126 49.7304L92.3077 49.0317L92.2949 47.9733L92.9936 48.7684L94.052 48.7556L93.2569 49.4543L93.2697 50.5127L92.571 49.7175L91.5126 49.7304Z" fill="#4BC8EF" fill-opacity="0.6"/>
</svg>
